<svg width="109" height="20" viewBox="0 0 109 20" fill="none" xmlns="http://www.w3.org/2000/svg">
<path d="M86.3213 7.04257L80.0259 6.1301L77.2117 0.440169C77.1348 0.284382 77.0083 0.158269 76.8521 0.0816119C76.4604 -0.111267 75.9843 0.0494654 75.7884 0.440169L72.9742 6.1301L66.6788 7.04257C66.5053 7.0673 66.3466 7.1489 66.2251 7.27254C66.0782 7.4231 65.9973 7.62566 66.0001 7.8357C66.0029 8.04575 66.0891 8.2461 66.24 8.39272L70.7948 12.8215L69.7187 19.0753C69.6934 19.2207 69.7096 19.3704 69.7653 19.5071C69.821 19.6439 69.914 19.7624 70.0337 19.8492C70.1535 19.9359 70.2953 19.9875 70.4429 19.998C70.5906 20.0085 70.7383 19.9775 70.8692 19.9086L76.5001 16.9561L82.1309 19.9086C82.2847 19.9902 82.4632 20.0174 82.6343 19.9877C83.0657 19.9135 83.3558 19.5055 83.2814 19.0753L82.2053 12.8215L86.7601 8.39272C86.8841 8.27156 86.9659 8.1133 86.9907 7.9402C87.0577 7.50746 86.7552 7.10686 86.3213 7.04257Z" fill="black"/>
<path d="M64.3213 7.04257L58.0259 6.1301L55.2117 0.440169C55.1348 0.284382 55.0083 0.158269 54.8521 0.0816119C54.4604 -0.111267 53.9843 0.0494654 53.7884 0.440169L50.9742 6.1301L44.6788 7.04257C44.5053 7.0673 44.3466 7.1489 44.2251 7.27254C44.0782 7.4231 43.9973 7.62566 44.0001 7.8357C44.0029 8.04575 44.0891 8.2461 44.24 8.39272L48.7948 12.8215L47.7187 19.0753C47.6934 19.2207 47.7096 19.3704 47.7653 19.5071C47.821 19.6439 47.914 19.7624 48.0337 19.8492C48.1535 19.9359 48.2953 19.9875 48.4429 19.998C48.5906 20.0085 48.7383 19.9775 48.8692 19.9086L54.5001 16.9561L60.1309 19.9086C60.2847 19.9902 60.4632 20.0174 60.6343 19.9877C61.0657 19.9135 61.3558 19.5055 61.2814 19.0753L60.2053 12.8215L64.7601 8.39272C64.8841 8.27156 64.9659 8.1133 64.9907 7.9402C65.0577 7.50746 64.7552 7.10686 64.3213 7.04257Z" fill="black"/>
<path d="M42.3213 7.04257L36.0259 6.1301L33.2117 0.440169C33.1348 0.284382 33.0083 0.158269 32.8521 0.0816119C32.4604 -0.111267 31.9843 0.0494654 31.7884 0.440169L28.9742 6.1301L22.6788 7.04257C22.5053 7.0673 22.3466 7.1489 22.2251 7.27254C22.0782 7.4231 21.9973 7.62566 22.0001 7.8357C22.0029 8.04575 22.0891 8.2461 22.24 8.39272L26.7948 12.8215L25.7187 19.0753C25.6934 19.2207 25.7096 19.3704 25.7653 19.5071C25.821 19.6439 25.914 19.7624 26.0337 19.8492C26.1535 19.9359 26.2953 19.9875 26.4429 19.998C26.5906 20.0085 26.7383 19.9775 26.8692 19.9086L32.5001 16.9561L38.1309 19.9086C38.2847 19.9902 38.4632 20.0174 38.6343 19.9877C39.0657 19.9135 39.3558 19.5055 39.2814 19.0753L38.2053 12.8215L42.7601 8.39272C42.8841 8.27156 42.9659 8.1133 42.9907 7.9402C43.0577 7.50746 42.7552 7.10686 42.3213 7.04257Z" fill="black"/>
<path d="M20.3213 7.04257L14.0259 6.1301L11.2117 0.440169C11.1348 0.284382 11.0083 0.158269 10.8521 0.0816119C10.4604 -0.111267 9.98432 0.0494654 9.78844 0.440169L6.97423 6.1301L0.678842 7.04257C0.505279 7.0673 0.346592 7.1489 0.225098 7.27254C0.0782178 7.4231 -0.00271976 7.62566 6.97872e-05 7.8357C0.00285933 8.04575 0.0891477 8.2461 0.239975 8.39272L4.79477 12.8215L3.71868 19.0753C3.69345 19.2207 3.70959 19.3704 3.76528 19.5071C3.82096 19.6439 3.91397 19.7624 4.03374 19.8492C4.15352 19.9359 4.29528 19.9875 4.44294 19.998C4.59059 20.0085 4.73825 19.9775 4.86916 19.9086L10.5001 16.9561L16.1309 19.9086C16.2847 19.9902 16.4632 20.0174 16.6343 19.9877C17.0657 19.9135 17.3558 19.5055 17.2814 19.0753L16.2053 12.8215L20.7601 8.39272C20.8841 8.27156 20.9659 8.1133 20.9907 7.9402C21.0577 7.50746 20.7552 7.10686 20.3213 7.04257Z" fill="black"/>
<path d="M108.321 7.04257L102.026 6.1301L99.2117 0.440169C99.1348 0.284382 99.0083 0.158269 98.8521 0.0816119C98.4604 -0.111267 97.9843 0.0494654 97.7884 0.440169L94.9742 6.1301L88.6788 7.04257C88.5053 7.0673 88.3466 7.1489 88.2251 7.27254C88.0782 7.4231 87.9973 7.62566 88.0001 7.8357C88.0029 8.04575 88.0891 8.2461 88.24 8.39272L92.7948 12.8215L91.7187 19.0753C91.6934 19.2207 91.7096 19.3704 91.7653 19.5071C91.821 19.6439 91.914 19.7624 92.0337 19.8492C92.1535 19.9359 92.2953 19.9875 92.4429 19.998C92.5906 20.0085 92.7383 19.9775 92.8692 19.9086L98.5001 16.9561L104.131 19.9086C104.285 19.9902 104.463 20.0174 104.634 19.9877C105.066 19.9135 105.356 19.5055 105.281 19.0753L104.205 12.8215L108.76 8.39272C108.884 8.27156 108.966 8.1133 108.991 7.9402C109.058 7.50746 108.755 7.10686 108.321 7.04257Z" fill="black"/>
</svg>
