<svg width="239" height="239" viewBox="0 0 239 239" fill="none" xmlns="http://www.w3.org/2000/svg">
<path d="M102.223 221.468C111.097 232.627 128.051 232.606 136.902 221.43L198.505 143.598C207.8 131.858 199.441 114.567 184.461 114.558L168.067 114.549L168.064 58.1962C168.065 52.3297 165.736 46.7029 161.59 42.5524C157.444 38.4019 151.82 36.0671 145.953 36.0611L93.2373 36.0104C90.329 36.0079 87.4486 36.5786 84.7609 37.6899C82.0732 38.8012 79.6309 40.4313 77.5735 42.487C75.5162 44.5427 73.8841 46.9837 72.7707 49.6705C71.6572 52.3573 71.0842 55.2372 71.0843 58.1455L71.0724 114.561L54.2885 114.728C39.3707 114.871 31.1576 132.123 40.441 143.797L102.226 221.471L102.223 221.468Z" fill="#DDA0DD"/>
<path d="M117.544 110.344C117.655 110.788 117.655 111.232 117.544 111.787C117.322 112.564 116.545 113.23 115.768 113.452C113.992 113.785 112.438 112.231 112.882 110.455C113.104 109.567 113.77 108.9 114.658 108.678C115.324 108.567 115.879 108.567 116.434 108.9C115.324 108.012 113.881 107.568 112.327 107.79C110.329 108.123 108.775 109.789 108.442 111.787C107.887 115.117 110.773 117.892 114.103 117.448C116.101 117.115 117.655 115.561 118.099 113.674C118.21 112.453 118.099 111.232 117.544 110.344Z" fill="black"/>
<path d="M126.536 107.791C124.982 107.458 123.539 107.902 122.54 108.79C123.095 108.568 123.65 108.457 124.316 108.679C125.093 108.901 125.87 109.567 125.981 110.455C126.425 112.231 124.76 113.785 122.984 113.341C122.096 113.119 121.43 112.453 121.208 111.565C121.097 111.121 121.097 110.788 121.208 110.455C120.874 111.232 120.652 112.231 120.763 113.23C120.986 115.339 122.762 117.115 124.871 117.448C128.201 117.892 130.976 115.117 130.421 111.787C130.088 109.789 128.534 108.235 126.536 107.791Z" fill="black"/>
<path d="M117.322 121.666C118.119 121.666 118.765 121.02 118.765 120.223C118.765 119.426 118.119 118.78 117.322 118.78C116.525 118.78 115.879 119.426 115.879 120.223C115.879 121.02 116.525 121.666 117.322 121.666Z" fill="black"/>
<path d="M121.539 121.666C122.336 121.666 122.983 121.02 122.983 120.223C122.983 119.426 122.336 118.78 121.539 118.78C120.743 118.78 120.096 119.426 120.096 120.223C120.096 121.02 120.743 121.666 121.539 121.666Z" fill="black"/>
<path d="M119.432 157.41C120.229 157.41 120.875 156.763 120.875 155.966C120.875 155.17 120.229 154.523 119.432 154.523C118.635 154.523 117.989 155.17 117.989 155.966C117.989 156.763 118.635 157.41 119.432 157.41Z" fill="black"/>
<path d="M156.063 113.453C156.063 97.5791 145.961 84.0366 131.753 78.9304C130.643 76.5994 128.423 74.9343 125.759 74.7123L125.314 79.8185C125.092 79.7075 124.87 79.5965 124.537 79.5965C124.537 79.5965 124.537 79.5965 124.426 79.5965C124.204 76.8214 123.538 74.0463 122.317 71.6042V69.7171C122.317 69.3841 122.095 69.1621 121.762 69.1621C121.429 69.1621 121.207 69.3841 121.207 69.7171V92.9169C121.207 93.2499 121.429 93.4719 121.762 93.4719C122.095 93.4719 122.317 93.2499 122.317 92.9169V91.4739V91.0299C123.427 88.5878 124.204 85.9237 124.426 83.0376C124.426 83.0376 124.426 83.0376 124.537 83.0376C124.759 83.0376 124.87 83.0376 124.981 82.9266L124.426 89.2538C126.98 89.4758 129.422 88.3658 130.865 86.4787C141.41 90.9188 148.736 101.353 148.736 113.453C148.736 124.331 142.853 133.766 134.084 138.761C133.862 136.208 131.753 134.321 129.2 134.321H128.978C132.863 132.212 135.86 128.771 137.525 124.664C138.635 124.886 139.745 124.886 140.855 124.553C143.519 123.776 145.628 121.556 146.072 118.781C146.849 114.23 143.297 110.234 138.857 110.234C138.413 110.234 137.969 110.234 137.525 110.345C134.75 103.018 127.646 97.8011 119.32 97.8011C119.209 97.8011 119.098 97.8011 118.876 97.8011C118.654 97.3571 118.543 96.9131 118.543 96.469C118.543 95.359 119.098 94.36 119.986 93.8049C118.654 94.471 117.655 95.803 117.433 97.2461C117.322 96.9131 117.322 96.691 117.322 96.358C117.322 94.693 118.654 93.2499 120.319 93.1389C120.208 93.1389 120.208 93.1389 120.097 93.1389C117.433 93.1389 115.213 95.359 115.213 98.0231C115.213 98.1341 115.213 98.2451 115.213 98.3561C108.664 99.6881 103.336 104.35 101.005 110.456C99.6726 110.234 98.3406 110.345 96.8975 110.9C94.5665 111.899 92.7904 114.119 92.4574 116.561C91.7914 121.112 95.3435 124.886 99.6726 124.886C100.117 124.886 100.672 124.886 101.116 124.775C102.781 128.882 105.778 132.323 109.663 134.432H109.441C106.888 134.432 104.779 136.43 104.557 138.872C95.7875 133.766 89.9043 124.331 89.9043 113.564C89.9043 101.464 97.2305 91.0299 107.776 86.5897C109.219 88.4768 111.661 89.5868 114.214 89.3648L113.881 83.0376C113.992 83.0376 114.214 83.1486 114.325 83.1486C114.325 83.1486 114.325 83.1486 114.436 83.1486C114.658 85.9237 115.324 88.6988 116.545 91.1409V93.0279C116.545 93.3609 116.767 93.5829 117.1 93.5829C117.433 93.5829 117.655 93.3609 117.655 93.0279V69.7171C117.655 69.3841 117.433 69.1621 117.1 69.1621C116.767 69.1621 116.545 69.3841 116.545 69.7171V71.1602V71.6042C115.435 74.0463 114.658 76.7104 114.436 79.5965C114.436 79.5965 114.436 79.5965 114.325 79.5965C114.103 79.5965 113.77 79.7075 113.548 79.8185L113.104 74.7123C110.44 74.9343 108.109 76.5994 107.11 78.9304C93.0124 84.0366 82.8 97.5791 82.8 113.453C82.8 128.438 91.7914 141.315 104.779 146.976V152.748C101.56 152.082 98.3406 152.748 96.1205 154.857C92.3464 158.631 93.1234 165.624 97.8966 170.398C102.67 175.171 109.552 175.948 113.437 172.174C115.657 169.954 116.323 166.734 115.546 163.515H123.316C122.65 166.734 123.316 169.954 125.426 172.174C129.2 175.948 136.193 175.171 140.966 170.398C145.739 165.624 146.516 158.742 142.742 154.857C140.522 152.637 137.303 151.971 134.084 152.748V146.976C146.96 141.315 156.063 128.438 156.063 113.453ZM138.413 112.676C139.523 112.565 140.633 112.787 141.965 113.786C143.075 114.674 143.963 116.117 143.963 117.56C143.963 120.224 141.743 122.444 138.968 122.333C138.746 122.111 138.746 122 138.524 121.778C138.857 120.335 139.079 118.892 139.079 117.338C138.968 115.673 138.746 114.119 138.413 112.676ZM100.006 122.333C97.3415 122.444 95.0105 120.224 95.0105 117.56C95.0105 116.117 95.7875 114.674 96.8975 113.786C98.2296 112.676 99.3396 112.565 100.45 112.676C100.117 114.119 99.8946 115.673 99.8946 117.338C99.8946 118.892 100.117 120.335 100.45 121.778C100.339 122 100.228 122.111 100.006 122.333ZM109.663 129.437V121.667C105.667 120.113 103.003 116.006 103.558 111.344C104.113 107.125 107.554 103.573 111.772 103.018C114.658 102.574 117.433 103.462 119.431 105.127C121.429 103.462 124.204 102.574 127.091 103.018C131.309 103.684 134.75 107.125 135.305 111.344C135.86 116.006 133.196 120.113 129.2 121.667V129.437C129.2 132.101 126.98 134.321 124.315 134.321H114.547C111.883 134.321 109.663 132.101 109.663 129.437ZM106.777 170.398C104.113 170.398 101.893 168.177 101.893 165.513C101.893 162.849 104.113 160.629 106.777 160.629C109.441 160.629 111.661 162.849 111.661 165.513C111.661 168.177 109.441 170.398 106.777 170.398ZM119.431 160.962C113.992 160.962 109.663 156.633 109.663 151.194C109.663 145.755 113.992 141.426 119.431 141.426C124.87 141.426 129.2 145.755 129.2 151.194C129.2 156.633 124.87 160.962 119.431 160.962ZM136.97 165.513C136.97 168.177 134.75 170.398 132.086 170.398C129.422 170.398 127.202 168.177 127.202 165.513C127.202 162.849 129.422 160.629 132.086 160.629C134.75 160.629 136.97 162.849 136.97 165.513Z" fill="black"/>
<path d="M126.757 124.552C126.424 124.219 125.98 124.108 125.536 124.33L125.425 124.441C125.314 124.441 125.314 124.552 125.203 124.663L125.092 124.774C125.092 124.885 124.981 124.885 124.981 124.996V125.107V125.329C124.981 128.104 122.983 130.436 120.208 130.88H120.097C119.986 130.88 119.875 130.88 119.875 130.88C119.764 130.88 119.653 130.88 119.542 130.88H119.431H119.32C119.209 130.88 119.098 130.88 118.987 130.88C118.876 130.88 118.765 130.88 118.765 130.88H118.654C115.879 130.436 113.881 128.104 113.881 125.329C113.881 125.218 113.881 125.218 113.881 125.218V124.996C113.881 124.885 113.77 124.885 113.77 124.774L113.659 124.663C113.548 124.552 113.548 124.552 113.437 124.441L113.326 124.33C112.66 123.997 111.883 124.552 111.883 125.329C111.883 128.104 113.437 130.769 115.879 132.101C116.989 132.656 118.21 132.989 119.542 132.989C120.541 132.989 121.54 132.767 122.539 132.434C122.983 132.212 123.427 131.99 123.871 131.768C124.315 131.546 124.648 131.213 124.981 130.88C125.536 130.325 125.98 129.77 126.313 129.104C126.535 128.659 126.757 128.215 126.868 127.771C127.09 126.994 127.201 126.217 127.201 125.44C127.09 125.107 126.979 124.774 126.757 124.552Z" fill="black"/>
</svg>
