<svg width="370" height="128" viewBox="0 0 370 128" fill="none" xmlns="http://www.w3.org/2000/svg">
<g clip-path="url(#clip0_22_128)">
<path d="M41.884 49.6453C42.0178 50.1805 42.0178 50.7158 41.884 51.3849C41.6164 52.3216 40.6797 53.1245 39.743 53.3921C37.6019 53.7935 35.7285 51.9201 36.2638 49.7791C36.5314 48.7086 37.3343 47.9057 38.4048 47.638C39.2077 47.5042 39.8768 47.5042 40.5459 47.9057C39.2077 46.8352 37.4681 46.2999 35.5947 46.5675C33.186 46.969 31.3126 48.9762 30.9112 51.3849C30.2421 55.3993 33.7213 58.7447 37.7357 58.2094C40.1444 57.808 42.0178 55.9346 42.5531 53.6597C42.6869 52.1877 42.5531 50.7158 41.884 49.6453Z" fill="#111111"/>
<path d="M52.723 46.5676C50.8496 46.1661 49.11 46.7014 47.9057 47.7719C48.5748 47.5043 49.2439 47.3704 50.0467 47.6381C50.9834 47.9057 51.9201 48.7086 52.054 49.7791C52.5892 51.9201 50.582 53.7935 48.441 53.2583C47.3704 52.9907 46.5676 52.1878 46.2999 51.1173C46.1661 50.582 46.1661 50.1806 46.2999 49.7791C45.8985 50.7158 45.6309 51.9201 45.7647 53.1245C46.0323 55.667 48.1733 57.808 50.7158 58.2094C54.7303 58.7447 58.0756 55.3993 57.4066 51.3849C57.0051 48.9762 55.1317 47.1028 52.723 46.5676Z" fill="#111111"/>
<path d="M41.6164 63.2944C42.5772 63.2944 43.356 62.5156 43.356 61.5548C43.356 60.5941 42.5772 59.8152 41.6164 59.8152C40.6557 59.8152 39.8768 60.5941 39.8768 61.5548C39.8768 62.5156 40.6557 63.2944 41.6164 63.2944Z" fill="#111111"/>
<path d="M46.7014 63.2944C47.6621 63.2944 48.441 62.5156 48.441 61.5548C48.441 60.5941 47.6621 59.8152 46.7014 59.8152C45.7406 59.8152 44.9618 60.5941 44.9618 61.5548C44.9618 62.5156 45.7406 63.2944 46.7014 63.2944Z" fill="#111111"/>
<path d="M44.1589 106.383C45.1197 106.383 45.8985 105.604 45.8985 104.643C45.8985 103.682 45.1197 102.904 44.1589 102.904C43.1982 102.904 42.4193 103.682 42.4193 104.643C42.4193 105.604 43.1982 106.383 44.1589 106.383Z" fill="#111111"/>
<path d="M88.3178 53.3921C88.3178 34.2566 76.1406 17.9312 59.0123 11.7757C57.6742 8.96559 54.9979 6.95837 51.7863 6.69074L51.2511 12.8462C50.9834 12.7124 50.7158 12.5786 50.3144 12.5786C50.3144 12.5786 50.3144 12.5786 50.1805 12.5786C49.9129 9.23322 49.11 5.88785 47.6381 2.94393V0.669074C47.6381 0.26763 47.3704 0 46.969 0C46.5675 0 46.2999 0.26763 46.2999 0.669074V28.6364C46.2999 29.0378 46.5675 29.3054 46.969 29.3054C47.3704 29.3054 47.6381 29.0378 47.6381 28.6364V26.8968V26.3615C48.9762 23.4176 49.9129 20.206 50.1805 16.7268C50.1805 16.7268 50.1805 16.7268 50.3144 16.7268C50.582 16.7268 50.7158 16.7268 50.8496 16.593L50.1805 24.2205C53.2583 24.4881 56.2022 23.15 57.9418 20.8751C70.6542 26.2277 79.486 38.8063 79.486 53.3921C79.486 66.506 72.3938 77.8802 61.8224 83.9019C61.5548 80.8241 59.0123 78.5493 55.9346 78.5493H55.6669C60.3505 76.0068 63.9635 71.8585 65.9707 66.9074C67.3088 67.175 68.647 67.175 69.9851 66.7736C73.1967 65.8369 75.7392 63.1606 76.2744 59.8152C77.2111 54.3288 72.9291 49.5115 67.5765 49.5115C67.0412 49.5115 66.506 49.5115 65.9707 49.6453C62.6253 40.8135 54.0612 34.5242 44.0251 34.5242C43.8913 34.5242 43.7574 34.5242 43.4898 34.5242C43.2222 33.989 43.0884 33.4537 43.0884 32.9184C43.0884 31.5803 43.7574 30.376 44.828 29.7069C43.2222 30.5098 42.0178 32.1155 41.7502 33.8551C41.6164 33.4537 41.6164 33.1861 41.6164 32.7846C41.6164 30.7774 43.2222 29.0378 45.2294 28.904C45.0956 28.904 45.0956 28.904 44.9618 28.904C41.7502 28.904 39.0739 31.5803 39.0739 34.7918C39.0739 34.9257 39.0739 35.0595 39.0739 35.1933C31.1788 36.7991 24.7557 42.4193 21.9456 49.7791C20.3398 49.5115 18.7341 49.6453 16.9945 50.3144C14.1844 51.5187 12.0433 54.195 11.6419 57.1389C10.839 62.6253 15.1211 67.175 20.3398 67.175C20.8751 67.175 21.5442 67.175 22.0794 67.0412C24.0867 71.9924 27.6997 76.1406 32.3832 78.6831H32.1155C29.0378 78.6831 26.4953 81.0918 26.2277 84.0357C15.6563 77.8802 8.56415 66.5059 8.56415 53.5259C8.56415 38.9401 17.3959 26.3615 30.1083 21.0089C31.8479 23.2838 34.7918 24.6219 37.8696 24.3543L37.4681 16.7268C37.602 16.7268 37.8696 16.8607 38.0034 16.8607C38.0034 16.8607 38.0034 16.8607 38.1372 16.8607C38.4048 20.206 39.2077 23.5514 40.6797 26.4953V28.7702C40.6797 29.1716 40.9473 29.4393 41.3488 29.4393C41.7502 29.4393 42.0178 29.1716 42.0178 28.7702V0.669074C42.0178 0.26763 41.7502 0 41.3488 0C40.9473 0 40.6797 0.26763 40.6797 0.669074V2.40867V2.94393C39.3415 5.88785 38.4048 9.09941 38.1372 12.5786C38.1372 12.5786 38.1372 12.5786 38.0034 12.5786C37.7358 12.5786 37.3343 12.7124 37.0667 12.8462L36.5314 6.69074C33.3199 6.95837 30.5098 8.96559 29.3054 11.7757C12.311 17.9312 0 34.2566 0 53.3921C0 71.4571 10.839 86.9796 26.4953 93.8042V100.763C22.6147 99.9597 18.7341 100.763 16.0578 103.305C11.5081 107.855 12.4448 116.285 18.1988 122.039C23.9528 127.793 32.2494 128.73 36.9329 124.18C39.6092 121.504 40.4121 117.623 39.4754 113.743H48.8424C48.0395 117.623 48.8424 121.504 51.3849 124.18C55.9346 128.73 64.3649 127.793 70.119 122.039C75.873 116.285 76.8097 107.989 72.26 103.305C69.5837 100.629 65.7031 99.8258 61.8224 100.763V93.8042C77.3449 86.9796 88.3178 71.4571 88.3178 53.3921ZM67.0412 52.4554C68.3794 52.3216 69.7175 52.5892 71.3233 53.7935C72.6614 54.8641 73.7319 56.6037 73.7319 58.3432C73.7319 61.5548 71.0557 64.2311 67.7103 64.0973C67.4427 63.8297 67.4426 63.6958 67.175 63.4282C67.5765 61.6886 67.8441 59.949 67.8441 58.0756C67.7103 56.0684 67.4427 54.195 67.0412 52.4554ZM20.7413 64.0973C17.5297 64.2311 14.7196 61.5548 14.7196 58.3432C14.7196 56.6037 15.6563 54.8641 16.9945 53.7935C18.6003 52.4554 19.9384 52.3216 21.2766 52.4554C20.8751 54.195 20.6075 56.0684 20.6075 58.0756C20.6075 59.949 20.8751 61.6886 21.2766 63.4282C21.1427 63.6958 21.0089 63.8297 20.7413 64.0973ZM32.3832 72.6614V63.2944C27.5658 61.421 24.3543 56.4698 25.0234 50.8496C25.6924 45.7647 29.8407 41.4826 34.9257 40.8135C38.4048 40.2783 41.7502 41.3488 44.1589 43.356C46.5675 41.3488 49.9129 40.2783 53.3921 40.8135C58.4771 41.6164 62.6253 45.7647 63.2944 50.8496C63.9635 56.4698 60.7519 61.421 55.9346 63.2944V72.6614C55.9346 75.873 53.2583 78.5493 50.0467 78.5493H38.271C35.0595 78.5493 32.3832 75.873 32.3832 72.6614ZM28.904 122.039C25.6924 122.039 23.0161 119.363 23.0161 116.151C23.0161 112.94 25.6924 110.263 28.904 110.263C32.1155 110.263 34.7918 112.94 34.7918 116.151C34.7918 119.363 32.1155 122.039 28.904 122.039ZM44.1589 110.665C37.602 110.665 32.3832 105.446 32.3832 98.8891C32.3832 92.3322 37.602 87.1134 44.1589 87.1134C50.7158 87.1134 55.9346 92.3322 55.9346 98.8891C55.9346 105.446 50.7158 110.665 44.1589 110.665ZM65.3016 116.151C65.3016 119.363 62.6253 122.039 59.4138 122.039C56.2022 122.039 53.5259 119.363 53.5259 116.151C53.5259 112.94 56.2022 110.263 59.4138 110.263C62.6253 110.263 65.3016 112.94 65.3016 116.151Z" fill="#111111"/>
<path d="M52.9906 66.7736C52.5892 66.3721 52.0539 66.2383 51.5187 66.506L51.3849 66.6398C51.251 66.6398 51.251 66.7736 51.1172 66.9074L50.9834 67.0412C50.9834 67.175 50.8496 67.175 50.8496 67.3088V67.4427V67.7103C50.8496 71.0557 48.4409 73.8658 45.0956 74.401H44.9617C44.8279 74.401 44.6941 74.401 44.6941 74.401C44.5603 74.401 44.4265 74.401 44.2927 74.401H44.1589H44.025C43.8912 74.401 43.7574 74.401 43.6236 74.401C43.4898 74.401 43.356 74.401 43.356 74.401H43.2221C39.8768 73.8658 37.4681 71.0557 37.4681 67.7103C37.4681 67.5765 37.4681 67.5765 37.4681 67.5765V67.3088C37.4681 67.175 37.3343 67.175 37.3343 67.0412L37.2005 66.9074C37.0667 66.7736 37.0667 66.7736 36.9329 66.6398L36.799 66.506C35.9962 66.1045 35.0594 66.7736 35.0594 67.7103C35.0594 71.0557 36.9329 74.2672 39.8768 75.873C41.2149 76.5421 42.6869 76.9435 44.2927 76.9435C45.497 76.9435 46.7013 76.6759 47.9057 76.2744C48.4409 76.0068 48.9762 75.7392 49.5114 75.4715C50.0467 75.2039 50.4481 74.8025 50.8496 74.401C51.5187 73.7319 52.0539 73.0629 52.4554 72.26C52.723 71.7247 52.9906 71.1895 53.1244 70.6542C53.3921 69.7175 53.5259 68.7808 53.5259 67.8441C53.3921 67.4427 53.2583 67.0412 52.9906 66.7736Z" fill="#111111"/>
<path d="M140.669 26.5949L137.35 30.483C136.054 29.1553 134.505 28.1122 132.703 27.3536C130.901 26.5949 129.005 26.2156 127.013 26.2156C124.421 26.2156 122.058 26.8004 119.925 27.97C117.791 29.1395 116.124 30.7358 114.923 32.7589C113.69 34.8767 113.073 37.2317 113.073 39.8237C113.073 42.2892 113.737 44.5651 115.065 46.6514C116.329 48.6112 118.028 50.168 120.162 51.3218C122.296 52.4755 124.595 53.0524 127.061 53.0524C129.337 53.0524 131.455 52.5624 133.414 51.5825C135.374 50.6026 137.002 49.2434 138.298 47.5049L141.475 51.8196C139.673 53.8426 137.516 55.4152 135.003 56.5374C132.49 57.6595 129.827 58.2206 127.013 58.2206C123.505 58.2206 120.28 57.3671 117.341 55.6602C114.464 54.0165 112.204 51.7564 110.56 48.8799C108.853 45.9402 108 42.716 108 39.2073C108 35.825 108.901 32.7115 110.703 29.8666C112.41 27.1481 114.725 24.9907 117.649 23.3944C120.573 21.7981 123.71 21 127.061 21C129.684 21 132.182 21.5058 134.552 22.5173C136.86 23.4656 138.899 24.8248 140.669 26.5949V26.5949ZM154.182 41.7677V57.4146H149.061V22.0431H154.182V36.5521C155.446 35.9199 156.948 35.6038 158.686 35.6038C159.319 35.6038 160.852 35.746 163.286 36.0305C166.7 36.4414 169.007 36.6469 170.208 36.6469C172.042 36.6469 173.638 36.3466 174.997 35.746V22.0431H180.165V57.4146H174.997V40.9616C173.638 41.5622 172.042 41.8625 170.208 41.8625C169.007 41.8625 166.7 41.657 163.286 41.2461C160.852 40.9616 159.319 40.8194 158.686 40.8194C156.948 40.8194 155.446 41.1355 154.182 41.7677V41.7677ZM201.644 25.7889L199.7 21.4267H205.39L222.412 57.4146H216.627L214.304 52.2463H203.541C201.518 52.2463 199.7 52.436 198.088 52.8153C196.666 53.163 195.48 53.6214 194.532 54.1904C193.679 54.6961 193.11 55.2177 192.825 55.755L191.924 57.4146H186.329L201.644 25.7889ZM205.437 47.0307H211.981L204.252 32.0951L196.429 49.0221C197.124 48.4216 198.183 47.9474 199.605 47.5997C201.217 47.2204 203.161 47.0307 205.437 47.0307V47.0307ZM253.848 57.4146H229.05V22.0431H234.218V52.2463H253.848V57.4146ZM265.18 43.2375V52.2463H286.991V57.4146H260.012V22.0431H284.905V27.2588H265.18V37.9745C266.16 37.4055 267.25 37.0262 268.452 36.8365C269.337 36.6785 270.475 36.5995 271.866 36.5995H279.594V41.8625H271.866C270.57 41.8625 269.432 41.9415 268.452 42.0996C267.25 42.3208 266.16 42.7002 265.18 43.2375V43.2375ZM325.587 26.5949L322.267 30.483C320.971 29.1553 319.423 28.1122 317.621 27.3536C315.819 26.5949 313.922 26.2156 311.931 26.2156C309.339 26.2156 306.976 26.8004 304.843 27.97C302.709 29.1395 301.041 30.7358 299.84 32.7589C298.607 34.8767 297.991 37.2317 297.991 39.8237C297.991 42.2892 298.655 44.5651 299.983 46.6514C301.247 48.6112 302.946 50.168 305.08 51.3218C307.213 52.4755 309.513 53.0524 311.978 53.0524C314.254 53.0524 316.372 52.5624 318.332 51.5825C320.292 50.6026 321.92 49.2434 323.216 47.5049L326.393 51.8196C324.591 53.8426 322.433 55.4152 319.92 56.5374C317.407 57.6595 314.744 58.2206 311.931 58.2206C308.422 58.2206 305.198 57.3671 302.258 55.6602C299.382 54.0165 297.122 51.7564 295.478 48.8799C293.771 45.9402 292.918 42.716 292.918 39.2073C292.918 35.825 293.819 32.7115 295.62 29.8666C297.327 27.1481 299.643 24.9907 302.567 23.3944C305.491 21.7981 308.628 21 311.978 21C314.602 21 317.099 21.5058 319.47 22.5173C321.778 23.4656 323.816 24.8248 325.587 26.5949V26.5949ZM364.561 39.4918C364.561 36.963 363.913 34.6713 362.617 32.6166C361.385 30.6252 359.701 29.0605 357.568 27.9226C355.434 26.7846 353.119 26.2156 350.622 26.2156C348.03 26.2156 345.667 26.8004 343.533 27.97C341.399 29.1395 339.732 30.7358 338.531 32.7589C337.298 34.8767 336.682 37.2317 336.682 39.8237C336.682 42.2892 337.345 44.5651 338.673 46.6514C339.937 48.6112 341.636 50.168 343.77 51.3218C345.904 52.4755 348.211 53.0524 350.693 53.0524C353.174 53.0524 355.482 52.4518 357.615 51.2506C359.749 50.0495 361.432 48.4374 362.665 46.4143C363.929 44.2965 364.561 41.9889 364.561 39.4918V39.4918ZM369.682 39.7763C369.682 43.1901 368.797 46.3353 367.027 49.2118C365.32 51.9619 363.005 54.1508 360.081 55.7787C357.157 57.4067 354.004 58.2206 350.622 58.2206C347.113 58.2206 343.889 57.3671 340.949 55.6602C338.072 54.0165 335.812 51.7564 334.169 48.8799C332.462 45.9402 331.608 42.716 331.608 39.2073C331.608 35.825 332.509 32.7115 334.311 29.8666C336.018 27.1481 338.333 24.9907 341.257 23.3944C344.181 21.7981 347.318 21 350.669 21C354.114 21 357.307 21.8377 360.247 23.513C363.123 25.1567 365.399 27.3852 367.074 30.1985C368.813 33.1382 369.682 36.3308 369.682 39.7763Z" fill="#111111"/>
<path d="M118.249 74.3218V99.5609H126.343C128.578 99.5609 130.589 98.9862 132.377 97.8368C134.069 96.7193 135.394 95.2187 136.352 93.3349C137.31 91.4511 137.789 89.3918 137.789 87.1568C137.789 84.8261 137.334 82.6869 136.424 80.7393C135.514 78.7917 134.213 77.2432 132.521 76.0938C130.701 74.9124 128.61 74.3218 126.247 74.3218H118.249V74.3218ZM110.299 74.3218L108 69.0536H126.199C129.36 69.0536 132.249 69.8678 134.867 71.4961C137.39 73.0606 139.385 75.1998 140.854 77.9137C142.323 80.6275 143.057 83.5809 143.057 86.7737C143.057 89.1683 142.586 91.5389 141.644 93.8857C140.702 96.2324 139.401 98.2838 137.741 100.04C136.145 101.764 134.436 102.993 132.617 103.727C130.86 104.43 128.769 104.781 126.343 104.781H113.124V74.3218H110.299V74.3218ZM156.419 90.4614V99.5609H178.449V104.781H151.199V69.0536H176.342V74.3218H156.419V85.1454C157.409 84.5707 158.51 84.1875 159.723 83.9959C160.617 83.8363 161.767 83.7565 163.172 83.7565H170.978V89.0725H163.172C161.863 89.0725 160.713 89.1523 159.723 89.312C158.51 89.5355 157.409 89.9186 156.419 90.4614V90.4614ZM230.316 80.2125L218.104 94.8196L205.987 80.2125V104.781H200.863V74.0823L196.696 69.0536H203.449L218.056 86.5821L232.855 69.0536H239.607L235.441 74.0823V104.781H230.316V80.2125V80.2125ZM277.921 86.6779C277.921 84.1237 277.267 81.8089 275.957 79.7336C274.712 77.7221 273.012 76.1417 270.857 74.9922C268.702 73.8428 266.363 73.2681 263.841 73.2681C261.223 73.2681 258.836 73.8588 256.681 75.0401C254.526 76.2215 252.842 77.8338 251.628 79.8772C250.383 82.0164 249.761 84.3951 249.761 87.0131C249.761 89.5035 250.431 91.8024 251.772 93.9096C253.049 95.8891 254.765 97.4616 256.92 98.627C259.076 99.7924 261.406 100.375 263.913 100.375C266.419 100.375 268.75 99.7684 270.905 98.5551C273.06 97.3419 274.76 95.7135 276.005 93.6701C277.282 91.531 277.921 89.2002 277.921 86.6779V86.6779ZM283.093 86.9653C283.093 90.4135 282.199 93.5903 280.411 96.4958C278.687 99.2735 276.349 101.485 273.395 103.129C270.442 104.773 267.257 105.595 263.841 105.595C260.297 105.595 257.04 104.733 254.071 103.009C251.165 101.349 248.882 99.066 247.222 96.1605C245.498 93.1912 244.636 89.9346 244.636 86.3906C244.636 82.9743 245.546 79.8293 247.366 76.9558C249.09 74.21 251.429 72.0309 254.382 70.4185C257.335 68.8062 260.504 68 263.889 68C267.369 68 270.594 68.8461 273.563 70.5383C276.468 72.1985 278.767 74.4495 280.459 77.2911C282.215 80.2604 283.093 83.4851 283.093 86.9653ZM292.289 74.0823L288.122 69.0536H294.875L317.815 96.3521V69.0536H323.083V104.781H317.911L297.413 80.2125V104.781H292.289V74.0823ZM364.51 86.6779C364.51 84.1237 363.855 81.8089 362.546 79.7336C361.301 77.7221 359.601 76.1417 357.446 74.9922C355.291 73.8428 352.952 73.2681 350.43 73.2681C347.812 73.2681 345.425 73.8588 343.27 75.0401C341.115 76.2215 339.43 77.8338 338.217 79.8772C336.972 82.0164 336.349 84.3951 336.349 87.0131C336.349 89.5035 337.02 91.8024 338.361 93.9096C339.638 95.8891 341.354 97.4616 343.509 98.627C345.664 99.7924 347.995 100.375 350.501 100.375C353.008 100.375 355.339 99.7684 357.494 98.5551C359.649 97.3419 361.349 95.7135 362.594 93.6701C363.871 91.531 364.51 89.2002 364.51 86.6779V86.6779ZM369.682 86.9653C369.682 90.4135 368.788 93.5903 367 96.4958C365.276 99.2735 362.937 101.485 359.984 103.129C357.031 104.773 353.846 105.595 350.43 105.595C346.886 105.595 343.629 104.733 340.66 103.009C337.754 101.349 335.471 99.066 333.811 96.1605C332.087 93.1912 331.225 89.9346 331.225 86.3906C331.225 82.9743 332.135 79.8293 333.955 76.9558C335.679 74.21 338.018 72.0309 340.971 70.4185C343.924 68.8062 347.093 68 350.478 68C353.958 68 357.182 68.8461 360.152 70.5383C363.057 72.1985 365.356 74.4495 367.048 77.2911C368.804 80.2604 369.682 83.4851 369.682 86.9653Z" fill="#111111"/>
</g>
<defs>
<clipPath id="clip0_22_128">
<rect width="369.682" height="127.059" fill="white"/>
</clipPath>
</defs>
</svg>
