<svg width="24" height="24" viewBox="0 0 24 24" fill="none" xmlns="http://www.w3.org/2000/svg">
<path d="M12 0C5.38312 0 0 5.38312 0 12C0 18.6169 5.38312 24 12 24C18.6169 24 24 18.6169 24 12C24 5.38312 18.6169 0 12 0ZM17.7069 17.7069C17.5194 17.8943 17.2651 17.9995 17 17.9995C16.7349 17.9995 16.4806 17.8943 16.2931 17.7069L13.6156 15.03C12.4845 15.8084 11.1033 16.1359 9.74305 15.9484C8.38283 15.7608 7.1418 15.0717 6.2635 14.0163C5.38519 12.9609 4.93302 11.6153 4.99571 10.2436C5.0584 8.87198 5.63143 7.57326 6.60234 6.60234C7.57326 5.63143 8.87198 5.0584 10.2436 4.99571C11.6153 4.93302 12.9609 5.38519 14.0163 6.2635C15.0717 7.1418 15.7608 8.38283 15.9484 9.74305C16.1359 11.1033 15.8084 12.4845 15.03 13.6156L17.7069 16.2931C17.8943 16.4806 17.9995 16.7349 17.9995 17C17.9995 17.2651 17.8943 17.5194 17.7069 17.7069V17.7069Z" fill="black"/>
<path d="M10.5 14C12.433 14 14 12.433 14 10.5C14 8.567 12.433 7 10.5 7C8.567 7 7 8.567 7 10.5C7 12.433 8.567 14 10.5 14Z" fill="black"/>
</svg>
