<svg width="128" height="23" viewBox="0 0 128 23" fill="none" xmlns="http://www.w3.org/2000/svg">
<path d="M15.5811 7.24591L15.6975 7.48171L15.9577 7.51953L23.1508 8.56493C23.1511 8.56496 23.1513 8.565 23.1515 8.56503C23.3787 8.59917 23.5285 8.80689 23.4952 9.02274L23.4952 9.02274L23.4944 9.02827C23.4819 9.11564 23.4407 9.19686 23.3761 9.26024C23.376 9.26031 23.376 9.26037 23.3759 9.26044L18.1713 14.3347L17.9831 14.5182L18.0276 14.7773L19.2574 21.9436L19.2575 21.944C19.2953 22.1637 19.1478 22.3737 18.9256 22.412L18.9249 22.4121C18.8367 22.4275 18.7457 22.4128 18.6703 22.3727L18.668 22.3715L12.2327 18.988L12.0001 18.8657L11.7674 18.988L5.33207 22.3715L5.3313 22.3719C5.26431 22.4072 5.18876 22.4231 5.1132 22.4177C5.03765 22.4124 4.96511 22.3859 4.90382 22.3414C4.84253 22.2969 4.79494 22.2361 4.76644 22.1659C4.73795 22.0957 4.72969 22.019 4.7426 21.9443L4.74272 21.9436L5.97254 14.7773L6.017 14.5182L5.82878 14.3347L0.623299 9.25954L0.623267 9.25951C0.545792 9.18399 0.501469 9.0808 0.500036 8.97261C0.498607 8.86474 0.539942 8.7607 0.614981 8.68322C0.678301 8.61888 0.759356 8.57778 0.84653 8.56533L0.847731 8.56516L8.04246 7.51953L8.30266 7.48171L8.41897 7.24591L11.634 0.728014C11.6342 0.727692 11.6343 0.72737 11.6345 0.727049C11.7364 0.524618 11.9819 0.443544 12.1811 0.541865L12.1817 0.542151C12.2612 0.581268 12.3256 0.645664 12.3647 0.725161L12.3649 0.725594L15.5811 7.24591Z" fill="#8A2AE3" stroke="#8A2AE3"/>
<path d="M41.5811 7.24591L41.6975 7.48171L41.9577 7.51953L49.1508 8.56493C49.1511 8.56496 49.1513 8.565 49.1515 8.56503C49.3787 8.59917 49.5285 8.80689 49.4952 9.02274L49.4952 9.02274L49.4944 9.02827C49.4819 9.11564 49.4407 9.19686 49.3761 9.26024C49.376 9.26031 49.376 9.26037 49.3759 9.26044L44.1713 14.3347L43.9831 14.5182L44.0276 14.7773L45.2574 21.9436L45.2575 21.944C45.2953 22.1637 45.1478 22.3737 44.9256 22.412L44.9249 22.4121C44.8367 22.4275 44.7457 22.4128 44.6703 22.3727L44.668 22.3715L38.2327 18.988L38.0001 18.8657L37.7674 18.988L31.3321 22.3715L31.3313 22.3719C31.2643 22.4072 31.1888 22.4231 31.1132 22.4177C31.0376 22.4124 30.9651 22.3859 30.9038 22.3414C30.8425 22.2969 30.7949 22.2361 30.7664 22.1659C30.7379 22.0957 30.7297 22.019 30.7426 21.9443L30.7427 21.9436L31.9725 14.7773L32.017 14.5182L31.8288 14.3347L26.6233 9.25954L26.6233 9.25951C26.5458 9.18399 26.5015 9.0808 26.5 8.97261C26.4986 8.86474 26.5399 8.7607 26.615 8.68322C26.6783 8.61888 26.7594 8.57778 26.8465 8.56533L26.8477 8.56516L34.0425 7.51953L34.3027 7.48171L34.419 7.24591L37.634 0.728014C37.6342 0.727692 37.6343 0.72737 37.6345 0.727049C37.7364 0.524618 37.9819 0.443544 38.1811 0.541865L38.1817 0.542151C38.2612 0.581268 38.3256 0.645664 38.3647 0.725161L38.3649 0.725594L41.5811 7.24591Z" fill="#8A2AE3" stroke="#8A2AE3"/>
<path d="M67.5811 7.24591L67.6975 7.48171L67.9577 7.51953L75.1508 8.56493C75.1511 8.56496 75.1513 8.565 75.1515 8.56503C75.3787 8.59917 75.5285 8.80689 75.4952 9.02274L75.4952 9.02274L75.4944 9.02827C75.4819 9.11564 75.4407 9.19686 75.3761 9.26024C75.376 9.26031 75.376 9.26037 75.3759 9.26044L70.1713 14.3347L69.9831 14.5182L70.0276 14.7773L71.2574 21.9436L71.2575 21.944C71.2953 22.1637 71.1478 22.3737 70.9256 22.412L70.9249 22.4121C70.8367 22.4275 70.7457 22.4128 70.6703 22.3727L70.668 22.3715L64.2327 18.988L64.0001 18.8657L63.7674 18.988L57.3321 22.3715L57.3313 22.3719C57.2643 22.4072 57.1888 22.4231 57.1132 22.4177C57.0376 22.4124 56.9651 22.3859 56.9038 22.3414C56.8425 22.2969 56.7949 22.2361 56.7664 22.1659C56.7379 22.0957 56.7297 22.019 56.7426 21.9443L56.7427 21.9436L57.9725 14.7773L58.017 14.5182L57.8288 14.3347L52.6233 9.25954L52.6233 9.25951C52.5458 9.18399 52.5015 9.0808 52.5 8.97261C52.4986 8.86474 52.5399 8.7607 52.615 8.68322C52.6783 8.61888 52.7594 8.57778 52.8465 8.56533L52.8477 8.56516L60.0425 7.51953L60.3027 7.48171L60.419 7.24591L63.634 0.728014C63.6342 0.727692 63.6343 0.72737 63.6345 0.727049C63.7364 0.524618 63.9819 0.443544 64.1811 0.541865L64.1817 0.542151C64.2612 0.581268 64.3256 0.645664 64.3647 0.725161L64.3649 0.725594L67.5811 7.24591Z" fill="#8A2AE3" stroke="#8A2AE3"/>
<path d="M93.5811 7.24591L93.6975 7.48171L93.9577 7.51953L101.151 8.56493C101.151 8.56496 101.151 8.565 101.152 8.56503C101.379 8.59917 101.529 8.80689 101.495 9.02274L101.495 9.02274L101.494 9.02827C101.482 9.11564 101.441 9.19686 101.376 9.26024C101.376 9.26031 101.376 9.26037 101.376 9.26044L96.1713 14.3347L95.9831 14.5182L96.0276 14.7773L97.2574 21.9436L97.2575 21.944C97.2953 22.1637 97.1478 22.3737 96.9256 22.412L96.9249 22.4121C96.8367 22.4275 96.7457 22.4128 96.6703 22.3727L96.668 22.3715L90.2327 18.988L90.0001 18.8657L89.7674 18.988L83.3321 22.3715L83.3313 22.3719C83.2643 22.4072 83.1888 22.4231 83.1132 22.4177C83.0376 22.4124 82.9651 22.3859 82.9038 22.3414C82.8425 22.2969 82.7949 22.2361 82.7664 22.1659C82.7379 22.0957 82.7297 22.019 82.7426 21.9443L82.7427 21.9436L83.9725 14.7773L84.017 14.5182L83.8288 14.3347L78.6233 9.25954L78.6233 9.25951C78.5458 9.18399 78.5015 9.0808 78.5 8.97261C78.4986 8.86474 78.5399 8.7607 78.615 8.68322C78.6783 8.61888 78.7594 8.57778 78.8465 8.56533L78.8477 8.56516L86.0425 7.51953L86.3027 7.48171L86.419 7.24591L89.634 0.728014C89.6342 0.727692 89.6343 0.72737 89.6345 0.727049C89.7364 0.524618 89.9819 0.443544 90.1811 0.541865L90.1817 0.542151C90.2612 0.581268 90.3256 0.645664 90.3647 0.725161L90.3649 0.725594L93.5811 7.24591Z" fill="#8A2AE3" stroke="#8A2AE3"/>
<path d="M119.581 7.24591L119.697 7.48171L119.958 7.51953L127.151 8.56493C127.151 8.56496 127.151 8.565 127.152 8.56503C127.379 8.59917 127.529 8.80689 127.495 9.02274L127.495 9.02274L127.494 9.02827C127.482 9.11564 127.441 9.19686 127.376 9.26024C127.376 9.26031 127.376 9.26037 127.376 9.26044L122.171 14.3347L121.983 14.5182L122.028 14.7773L123.257 21.9436L123.257 21.944C123.295 22.1637 123.148 22.3737 122.926 22.412L122.925 22.4121C122.837 22.4275 122.746 22.4128 122.67 22.3727L122.668 22.3715L116.233 18.988L116 18.8657L115.767 18.988L109.332 22.3715L109.331 22.3719C109.264 22.4072 109.189 22.4231 109.113 22.4177C109.038 22.4124 108.965 22.3859 108.904 22.3414C108.843 22.2969 108.795 22.2361 108.766 22.1659C108.738 22.0957 108.73 22.019 108.743 21.9443L108.743 21.9436L109.973 14.7773L110.017 14.5182L109.829 14.3347L104.623 9.25954L104.623 9.25951C104.546 9.18399 104.501 9.0808 104.5 8.97261C104.499 8.86474 104.54 8.7607 104.615 8.68322C104.678 8.61888 104.759 8.57778 104.847 8.56533L104.848 8.56516L112.042 7.51953L112.303 7.48171L112.419 7.24591L115.634 0.728014C115.634 0.727692 115.634 0.72737 115.634 0.727049C115.736 0.524618 115.982 0.443544 116.181 0.541865L116.182 0.542151C116.261 0.581268 116.326 0.645664 116.365 0.725161L116.365 0.725594L119.581 7.24591Z" fill="#8A2AE3" stroke="#8A2AE3"/>
</svg>
